<mxfile host="app.diagrams.net" agent="Mozilla/5.0 (Windows NT 10.0; Win64; x64) AppleWebKit/537.36 (KHTML, like Gecko) Chrome/131.0.0.0 Safari/537.36 Edg/131.0.0.0" version="24.9.1">
  <diagram name="Page-1" id="wxbeJBxuWxnf2kUkU62H">
    <mxGraphModel dx="815" dy="447" grid="1" gridSize="10" guides="1" tooltips="1" connect="1" arrows="1" fold="1" page="1" pageScale="1" pageWidth="827" pageHeight="1169" math="0" shadow="0">
      <root>
        <mxCell id="0" />
        <mxCell id="1" parent="0" />
        <mxCell id="kE0vcW6U0ur0HFXIyvap-1" value="" style="shape=image;verticalLabelPosition=bottom;labelBackgroundColor=default;verticalAlign=top;aspect=fixed;imageAspect=0;image=https://ericecmorlaix.github.io/img/TableauFonctionLogique.png;" vertex="1" parent="1">
          <mxGeometry x="10" y="10" width="762" height="1095" as="geometry" />
        </mxCell>
        <mxCell id="kE0vcW6U0ur0HFXIyvap-2" value="" style="verticalLabelPosition=bottom;shadow=0;dashed=0;align=center;html=1;verticalAlign=top;shape=mxgraph.electrical.logic_gates.buffer2;" vertex="1" parent="1">
          <mxGeometry x="400" y="110" width="100" height="60" as="geometry" />
        </mxCell>
        <mxCell id="kE0vcW6U0ur0HFXIyvap-3" value="" style="verticalLabelPosition=bottom;shadow=0;dashed=0;align=center;html=1;verticalAlign=top;shape=mxgraph.electrical.logic_gates.inverter_2" vertex="1" parent="1">
          <mxGeometry x="400" y="250" width="100" height="60" as="geometry" />
        </mxCell>
        <mxCell id="kE0vcW6U0ur0HFXIyvap-4" value="" style="verticalLabelPosition=bottom;shadow=0;dashed=0;align=center;html=1;verticalAlign=top;shape=mxgraph.electrical.logic_gates.logic_gate;operation=and;negating=1;negSize=0.15;" vertex="1" parent="1">
          <mxGeometry x="400" y="700" width="100" height="60" as="geometry" />
        </mxCell>
        <mxCell id="kE0vcW6U0ur0HFXIyvap-6" value="" style="verticalLabelPosition=bottom;shadow=0;dashed=0;align=center;html=1;verticalAlign=top;shape=mxgraph.electrical.logic_gates.logic_gate;operation=xor;" vertex="1" parent="1">
          <mxGeometry x="400" y="1000" width="100" height="60" as="geometry" />
        </mxCell>
        <mxCell id="kE0vcW6U0ur0HFXIyvap-9" value="" style="verticalLabelPosition=bottom;shadow=0;dashed=0;align=center;html=1;verticalAlign=top;shape=mxgraph.electrical.logic_gates.logic_gate;operation=or;negating=1;negSize=0.15;" vertex="1" parent="1">
          <mxGeometry x="400" y="840" width="100" height="60" as="geometry" />
        </mxCell>
        <mxCell id="kE0vcW6U0ur0HFXIyvap-10" value="" style="verticalLabelPosition=bottom;shadow=0;dashed=0;align=center;html=1;verticalAlign=top;shape=mxgraph.electrical.logic_gates.logic_gate;operation=or;" vertex="1" parent="1">
          <mxGeometry x="400" y="555" width="100" height="60" as="geometry" />
        </mxCell>
        <mxCell id="kE0vcW6U0ur0HFXIyvap-11" value="" style="verticalLabelPosition=bottom;shadow=0;dashed=0;align=center;html=1;verticalAlign=top;shape=mxgraph.electrical.logic_gates.logic_gate;operation=and;" vertex="1" parent="1">
          <mxGeometry x="400" y="400" width="100" height="60" as="geometry" />
        </mxCell>
        <mxCell id="kE0vcW6U0ur0HFXIyvap-12" value="" style="verticalLabelPosition=bottom;shadow=0;dashed=0;align=center;html=1;verticalAlign=top;shape=mxgraph.electrical.iec_logic_gates.nor_2;" vertex="1" parent="1">
          <mxGeometry x="290" y="830" width="66" height="80" as="geometry" />
        </mxCell>
        <mxCell id="kE0vcW6U0ur0HFXIyvap-13" value="" style="verticalLabelPosition=bottom;shadow=0;dashed=0;align=center;html=1;verticalAlign=top;shape=mxgraph.electrical.iec_logic_gates.xor;" vertex="1" parent="1">
          <mxGeometry x="290" y="990" width="60" height="80" as="geometry" />
        </mxCell>
        <mxCell id="kE0vcW6U0ur0HFXIyvap-14" value="" style="verticalLabelPosition=bottom;shadow=0;dashed=0;align=center;html=1;verticalAlign=top;shape=mxgraph.electrical.iec_logic_gates.and;" vertex="1" parent="1">
          <mxGeometry x="290" y="390" width="60" height="80" as="geometry" />
        </mxCell>
        <mxCell id="kE0vcW6U0ur0HFXIyvap-15" value="" style="verticalLabelPosition=bottom;shadow=0;dashed=0;align=center;html=1;verticalAlign=top;shape=mxgraph.electrical.iec_logic_gates.or;" vertex="1" parent="1">
          <mxGeometry x="290" y="545" width="60" height="80" as="geometry" />
        </mxCell>
        <mxCell id="kE0vcW6U0ur0HFXIyvap-17" value="1" style="rounded=0;whiteSpace=wrap;html=1;" vertex="1" parent="1">
          <mxGeometry x="290" y="100" width="60" height="80" as="geometry" />
        </mxCell>
        <mxCell id="kE0vcW6U0ur0HFXIyvap-18" value="1" style="rounded=0;whiteSpace=wrap;html=1;" vertex="1" parent="1">
          <mxGeometry x="290" y="240" width="60" height="80" as="geometry" />
        </mxCell>
        <mxCell id="kE0vcW6U0ur0HFXIyvap-19" value="&#xa;&lt;span style=&quot;color: rgba(0, 0, 0, 0); font-family: monospace; font-size: 0px; font-style: normal; font-variant-ligatures: normal; font-variant-caps: normal; font-weight: 400; letter-spacing: normal; orphans: 2; text-align: start; text-indent: 0px; text-transform: none; widows: 2; word-spacing: 0px; -webkit-text-stroke-width: 0px; white-space: nowrap; background-color: rgb(251, 251, 251); text-decoration-thickness: initial; text-decoration-style: initial; text-decoration-color: initial; display: inline !important; float: none;&quot;&gt;%3CmxGraphModel%3E%3Croot%3E%3CmxCell%20id%3D%220%22%2F%3E%3CmxCell%20id%3D%221%22%20parent%3D%220%22%2F%3E%3CmxCell%20id%3D%222%22%20value%3D%22%22%20style%3D%22ellipse%3BwhiteSpace%3Dwrap%3Dwrap%3Bhtml%3D1%3Baspect%3Dfixe%3B%22%20vertex%3D%221%22%20parent%3D%221%22%3E%3CmxGéométrie%20x%3D%22350%22%20y%3D%22275%22%20largeur%3D%2210%22%20hauteur%3D%2210%22%20as%3D%22géométrie%22%2F%3E%3C% 2FmxCell%3E%3C%2Froot%3E%3C%2FmxGraphModel%3E" style="ellipse;whiteSpace=wrap;html=1;aspect=fixed;" vertex="1" parent="1">
          <mxGeometry x="350" y="275" width="10" height="10" as="geometry" />
        </mxCell>
        <mxCell id="kE0vcW6U0ur0HFXIyvap-20" value="" style="verticalLabelPosition=bottom;shadow=0;dashed=0;align=center;html=1;verticalAlign=top;shape=mxgraph.electrical.iec_logic_gates.and;" vertex="1" parent="1">
          <mxGeometry x="290" y="690" width="60" height="80" as="geometry" />
        </mxCell>
        <mxCell id="kE0vcW6U0ur0HFXIyvap-21" value="&#xa;&lt;span style=&quot;color: rgba(0, 0, 0, 0); font-family: monospace; font-size: 0px; font-style: normal; font-variant-ligatures: normal; font-variant-caps: normal; font-weight: 400; letter-spacing: normal; orphans: 2; text-align: start; text-indent: 0px; text-transform: none; widows: 2; word-spacing: 0px; -webkit-text-stroke-width: 0px; white-space: nowrap; background-color: rgb(251, 251, 251); text-decoration-thickness: initial; text-decoration-style: initial; text-decoration-color: initial; display: inline !important; float: none;&quot;&gt;%3CmxGraphModel%3E%3Croot%3E%3CmxCell%20id%3D%220%22%2F%3E%3CmxCell%20id%3D%221%22%20parent%3D%220%22%2F%3E%3CmxCell%20id%3D%222%22%20value%3D%22%22%20style%3D%22ellipse%3BwhiteSpace%3Dwrap%3Dwrap%3Bhtml%3D1%3Baspect%3Dfixe%3B%22%20vertex%3D%221%22%20parent%3D%221%22%3E%3CmxGéométrie%20x%3D%22350%22%20y%3D%22275%22%20largeur%3D%2210%22%20hauteur%3D%2210%22%20as%3D%22géométrie%22%2F%3E%3C% 2FmxCell%3E%3C%2Froot%3E%3C%2FmxGraphModel%3E" style="ellipse;whiteSpace=wrap;html=1;aspect=fixed;" vertex="1" parent="1">
          <mxGeometry x="350" y="725" width="10" height="10" as="geometry" />
        </mxCell>
        <mxCell id="kE0vcW6U0ur0HFXIyvap-23" value="L = a" style="text;strokeColor=none;align=center;fillColor=none;html=1;verticalAlign=middle;whiteSpace=wrap;rounded=0;" vertex="1" parent="1">
          <mxGeometry x="670" y="265" width="60" height="30" as="geometry" />
        </mxCell>
        <mxCell id="kE0vcW6U0ur0HFXIyvap-24" value="L = a . b" style="text;strokeColor=none;align=center;fillColor=none;html=1;verticalAlign=middle;whiteSpace=wrap;rounded=0;" vertex="1" parent="1">
          <mxGeometry x="671" y="415" width="60" height="30" as="geometry" />
        </mxCell>
        <mxCell id="kE0vcW6U0ur0HFXIyvap-25" value="L = a . b" style="text;strokeColor=none;align=center;fillColor=none;html=1;verticalAlign=middle;whiteSpace=wrap;rounded=0;" vertex="1" parent="1">
          <mxGeometry x="671" y="715" width="60" height="30" as="geometry" />
        </mxCell>
        <mxCell id="kE0vcW6U0ur0HFXIyvap-26" value="L = a . b + a . b" style="text;strokeColor=none;align=center;fillColor=none;html=1;verticalAlign=middle;whiteSpace=wrap;rounded=0;" vertex="1" parent="1">
          <mxGeometry x="640" y="1015" width="130" height="30" as="geometry" />
        </mxCell>
        <mxCell id="kE0vcW6U0ur0HFXIyvap-27" value="L = a + b" style="text;strokeColor=none;align=center;fillColor=none;html=1;verticalAlign=middle;whiteSpace=wrap;rounded=0;" vertex="1" parent="1">
          <mxGeometry x="670" y="855" width="60" height="30" as="geometry" />
        </mxCell>
        <mxCell id="kE0vcW6U0ur0HFXIyvap-28" value="L = a + b" style="text;strokeColor=none;align=center;fillColor=none;html=1;verticalAlign=middle;whiteSpace=wrap;rounded=0;" vertex="1" parent="1">
          <mxGeometry x="670" y="570" width="60" height="30" as="geometry" />
        </mxCell>
        <mxCell id="kE0vcW6U0ur0HFXIyvap-31" value="1" style="text;strokeColor=none;align=center;fillColor=none;html=1;verticalAlign=middle;whiteSpace=wrap;rounded=0;" vertex="1" parent="1">
          <mxGeometry x="590" y="125" width="20" height="25" as="geometry" />
        </mxCell>
        <mxCell id="kE0vcW6U0ur0HFXIyvap-32" value="1" style="text;strokeColor=none;align=center;fillColor=none;html=1;verticalAlign=middle;whiteSpace=wrap;rounded=0;" vertex="1" parent="1">
          <mxGeometry x="610" y="590" width="20" height="25" as="geometry" />
        </mxCell>
        <mxCell id="kE0vcW6U0ur0HFXIyvap-33" value="1" style="text;strokeColor=none;align=center;fillColor=none;html=1;verticalAlign=middle;whiteSpace=wrap;rounded=0;" vertex="1" parent="1">
          <mxGeometry x="610" y="615" width="20" height="25" as="geometry" />
        </mxCell>
        <mxCell id="kE0vcW6U0ur0HFXIyvap-34" value="1" style="text;strokeColor=none;align=center;fillColor=none;html=1;verticalAlign=middle;whiteSpace=wrap;rounded=0;" vertex="1" parent="1">
          <mxGeometry x="610" y="470" width="20" height="25" as="geometry" />
        </mxCell>
        <mxCell id="kE0vcW6U0ur0HFXIyvap-35" value="1" style="text;strokeColor=none;align=center;fillColor=none;html=1;verticalAlign=middle;whiteSpace=wrap;rounded=0;" vertex="1" parent="1">
          <mxGeometry x="590" y="267.5" width="20" height="25" as="geometry" />
        </mxCell>
        <mxCell id="kE0vcW6U0ur0HFXIyvap-37" value="1" style="text;strokeColor=none;align=center;fillColor=none;html=1;verticalAlign=middle;whiteSpace=wrap;rounded=0;" vertex="1" parent="1">
          <mxGeometry x="610" y="565" width="20" height="25" as="geometry" />
        </mxCell>
        <mxCell id="kE0vcW6U0ur0HFXIyvap-38" value="1" style="text;strokeColor=none;align=center;fillColor=none;html=1;verticalAlign=middle;whiteSpace=wrap;rounded=0;" vertex="1" parent="1">
          <mxGeometry x="610" y="690" width="20" height="25" as="geometry" />
        </mxCell>
        <mxCell id="kE0vcW6U0ur0HFXIyvap-39" value="1" style="text;strokeColor=none;align=center;fillColor=none;html=1;verticalAlign=middle;whiteSpace=wrap;rounded=0;" vertex="1" parent="1">
          <mxGeometry x="610" y="717.5" width="20" height="25" as="geometry" />
        </mxCell>
        <mxCell id="kE0vcW6U0ur0HFXIyvap-40" value="1" style="text;strokeColor=none;align=center;fillColor=none;html=1;verticalAlign=middle;whiteSpace=wrap;rounded=0;" vertex="1" parent="1">
          <mxGeometry x="610" y="742.5" width="20" height="25" as="geometry" />
        </mxCell>
        <mxCell id="kE0vcW6U0ur0HFXIyvap-41" value="1" style="text;strokeColor=none;align=center;fillColor=none;html=1;verticalAlign=middle;whiteSpace=wrap;rounded=0;" vertex="1" parent="1">
          <mxGeometry x="610" y="840" width="20" height="25" as="geometry" />
        </mxCell>
        <mxCell id="kE0vcW6U0ur0HFXIyvap-42" value="1" style="text;strokeColor=none;align=center;fillColor=none;html=1;verticalAlign=middle;whiteSpace=wrap;rounded=0;" vertex="1" parent="1">
          <mxGeometry x="610" y="1010" width="20" height="25" as="geometry" />
        </mxCell>
        <mxCell id="kE0vcW6U0ur0HFXIyvap-43" value="1" style="text;strokeColor=none;align=center;fillColor=none;html=1;verticalAlign=middle;whiteSpace=wrap;rounded=0;" vertex="1" parent="1">
          <mxGeometry x="610" y="1035" width="20" height="25" as="geometry" />
        </mxCell>
        <mxCell id="kE0vcW6U0ur0HFXIyvap-44" value="0" style="text;strokeColor=none;align=center;fillColor=none;html=1;verticalAlign=middle;whiteSpace=wrap;rounded=0;" vertex="1" parent="1">
          <mxGeometry x="590" y="150" width="20" height="25" as="geometry" />
        </mxCell>
        <mxCell id="kE0vcW6U0ur0HFXIyvap-45" value="0" style="text;strokeColor=none;align=center;fillColor=none;html=1;verticalAlign=middle;whiteSpace=wrap;rounded=0;" vertex="1" parent="1">
          <mxGeometry x="590" y="295" width="20" height="25" as="geometry" />
        </mxCell>
        <mxCell id="kE0vcW6U0ur0HFXIyvap-46" value="0" style="text;strokeColor=none;align=center;fillColor=none;html=1;verticalAlign=middle;whiteSpace=wrap;rounded=0;" vertex="1" parent="1">
          <mxGeometry x="610" y="417.5" width="20" height="25" as="geometry" />
        </mxCell>
        <mxCell id="kE0vcW6U0ur0HFXIyvap-47" value="0" style="text;strokeColor=none;align=center;fillColor=none;html=1;verticalAlign=middle;whiteSpace=wrap;rounded=0;" vertex="1" parent="1">
          <mxGeometry x="610" y="390" width="20" height="25" as="geometry" />
        </mxCell>
        <mxCell id="kE0vcW6U0ur0HFXIyvap-48" value="0" style="text;strokeColor=none;align=center;fillColor=none;html=1;verticalAlign=middle;whiteSpace=wrap;rounded=0;" vertex="1" parent="1">
          <mxGeometry x="610" y="445" width="20" height="25" as="geometry" />
        </mxCell>
        <mxCell id="kE0vcW6U0ur0HFXIyvap-50" value="0" style="text;strokeColor=none;align=center;fillColor=none;html=1;verticalAlign=middle;whiteSpace=wrap;rounded=0;" vertex="1" parent="1">
          <mxGeometry x="610" y="545" width="20" height="25" as="geometry" />
        </mxCell>
        <mxCell id="kE0vcW6U0ur0HFXIyvap-51" value="0" style="text;strokeColor=none;align=center;fillColor=none;html=1;verticalAlign=middle;whiteSpace=wrap;rounded=0;" vertex="1" parent="1">
          <mxGeometry x="610" y="767.5" width="20" height="25" as="geometry" />
        </mxCell>
        <mxCell id="kE0vcW6U0ur0HFXIyvap-52" value="0" style="text;strokeColor=none;align=center;fillColor=none;html=1;verticalAlign=middle;whiteSpace=wrap;rounded=0;" vertex="1" parent="1">
          <mxGeometry x="610" y="915" width="20" height="25" as="geometry" />
        </mxCell>
        <mxCell id="kE0vcW6U0ur0HFXIyvap-53" value="0" style="text;strokeColor=none;align=center;fillColor=none;html=1;verticalAlign=middle;whiteSpace=wrap;rounded=0;" vertex="1" parent="1">
          <mxGeometry x="610" y="890" width="20" height="25" as="geometry" />
        </mxCell>
        <mxCell id="kE0vcW6U0ur0HFXIyvap-54" value="0" style="text;strokeColor=none;align=center;fillColor=none;html=1;verticalAlign=middle;whiteSpace=wrap;rounded=0;" vertex="1" parent="1">
          <mxGeometry x="610" y="865" width="20" height="25" as="geometry" />
        </mxCell>
        <mxCell id="kE0vcW6U0ur0HFXIyvap-55" value="0" style="text;strokeColor=none;align=center;fillColor=none;html=1;verticalAlign=middle;whiteSpace=wrap;rounded=0;" vertex="1" parent="1">
          <mxGeometry x="610" y="985" width="20" height="25" as="geometry" />
        </mxCell>
        <mxCell id="kE0vcW6U0ur0HFXIyvap-56" value="0" style="text;strokeColor=none;align=center;fillColor=none;html=1;verticalAlign=middle;whiteSpace=wrap;rounded=0;" vertex="1" parent="1">
          <mxGeometry x="610" y="1060" width="20" height="25" as="geometry" />
        </mxCell>
      </root>
    </mxGraphModel>
  </diagram>
</mxfile>
